<?xml version="1.0" standalone="no"?>
<!DOCTYPE svg PUBLIC "-//W3C//DTD SVG 20010904//EN"
 "http://www.w3.org/TR/2001/REC-SVG-20010904/DTD/svg10.dtd">
<svg version="1.0" xmlns="http://www.w3.org/2000/svg"
 width="512.000000pt" height="512.000000pt" viewBox="0 0 512.000000 512.000000"
 preserveAspectRatio="xMidYMid meet">
<metadata>
Created by potrace 1.15, written by Peter Selinger 2001-2017
</metadata>
<g transform="translate(0.000000,512.000000) scale(0.100000,-0.100000)"
fill="#000000" stroke="none">
<path d="M1355 3760 l-1200 -1200 160 0 160 0 1042 1042 1043 1043 1043 -1043
1042 -1042 160 0 160 0 -243 243 -242 242 0 518 0 517 40 0 40 0 0 120 0 120
-480 0 -480 0 0 -120 0 -120 40 0 40 0 0 -117 0 -118 -558 558 c-306 306 -559
557 -562 557 -3 0 -545 -540 -1205 -1200z"/>
<path d="M880 1480 l0 -1000 640 0 640 0 0 1000 0 1000 -640 0 -640 0 0 -1000z
m400 600 l0 -160 -80 0 -80 0 0 160 0 160 80 0 80 0 0 -160z m220 0 l0 -160
-90 0 -90 0 0 160 0 160 90 0 90 0 0 -160z m220 0 l0 -160 -90 0 -90 0 0 160
0 160 90 0 90 0 0 -160z m200 0 l0 -160 -80 0 -80 0 0 160 0 160 80 0 80 0 0
-160z m-49 -690 c23 -13 25 -52 4 -70 -12 -10 -21 -10 -41 -1 -31 14 -103 14
-178 0 -67 -12 -81 -6 -46 22 58 44 214 74 261 49z"/>
<path d="M2560 1760 l0 -640 -80 0 -80 0 0 -80 0 -80 960 0 960 0 0 80 0 80
-80 0 -80 0 0 640 0 640 -800 0 -800 0 0 -640z m760 260 l0 -220 -300 0 -300
0 0 220 0 220 300 0 300 0 0 -220z m680 0 l0 -220 -300 0 -300 0 0 220 0 220
300 0 300 0 0 -220z m-680 -520 l0 -220 -300 0 -300 0 0 220 0 220 300 0 300
0 0 -220z m680 0 l0 -220 -300 0 -300 0 0 220 0 220 300 0 300 0 0 -220z"/>
</g>
</svg>
